<?xml version="1.0" standalone="no"?>
<!DOCTYPE svg PUBLIC "-//W3C//DTD SVG 20010904//EN"
 "http://www.w3.org/TR/2001/REC-SVG-20010904/DTD/svg10.dtd">
<svg version="1.0" xmlns="http://www.w3.org/2000/svg"
 width="1280.000000pt" height="828.000000pt" viewBox="0 0 1280.000000 828.000000"
 preserveAspectRatio="xMidYMid meet">
<metadata>
Created by potrace 1.15, written by Peter Selinger 2001-2017
</metadata>
<g transform="translate(0.000000,828.000000) scale(0.100000,-0.100000)"
fill="#ff0044" stroke="none">
<path d="M4930 8274 c-265 -12 -665 -57 -840 -93 -135 -28 -420 -120 -580
-186 -74 -31 -202 -84 -285 -117 -283 -113 -529 -250 -760 -422 -472 -352
-884 -727 -1249 -1136 -403 -452 -550 -651 -750 -1016 -139 -255 -348 -807
-411 -1087 -49 -217 -57 -326 -52 -715 4 -329 6 -368 30 -497 54 -296 111
-406 371 -720 104 -126 203 -241 219 -255 254 -217 613 -360 1137 -451 69 -11
126 -22 127 -23 2 -2 12 -58 24 -126 54 -321 164 -548 367 -762 247 -259 669
-498 1059 -598 220 -57 284 -64 578 -64 295 0 373 9 580 64 346 92 619 237
925 490 296 245 390 448 390 847 l0 151 83 6 c45 3 145 8 222 11 77 3 199 10
270 15 72 5 201 12 288 16 143 6 157 8 157 24 0 11 5 22 10 25 6 4 10 -5 10
-21 l0 -27 63 7 c75 8 444 36 507 39 l45 2 51 -150 c99 -292 169 -409 352
-587 254 -246 596 -458 900 -557 101 -33 302 -75 458 -96 298 -40 699 7 999
116 109 40 349 160 442 222 276 184 541 472 653 711 59 124 102 249 125 361 9
44 17 80 18 81 1 1 98 23 215 48 401 86 602 174 780 340 165 155 252 348 328
725 25 125 15 399 -20 586 -83 435 -229 798 -444 1099 -69 97 -290 328 -428
446 -123 106 -377 288 -533 382 -151 92 -298 157 -511 228 -254 85 -393 112
-767 150 -218 22 -300 39 -351 73 -18 12 -89 94 -157 182 -297 385 -375 479
-557 673 -106 114 -226 238 -268 277 -237 221 -584 470 -937 674 -193 111
-587 283 -918 401 -192 69 -233 79 -745 179 -85 17 -195 35 -245 41 -88 11
-826 21 -975 14z"/>
</g>
</svg>
